<!DOCTYPE svg PUBLIC "-//W3C//DTD SVG 1.1//EN" "http://www.w3.org/Graphics/SVG/1.1/DTD/svg11.dtd">

<!-- Uploaded to: SVG Repo, www.svgrepo.com, Transformed by: SVG Repo Mixer Tools -->
<svg width="90" height="82" viewBox="0 -181.5 350 350" version="1.1" xmlns="http://www.w3.org/2000/svg" xmlns:xlink="http://www.w3.org/1999/xlink" preserveAspectRatio="xMidYMid" fill="#ffffff" stroke="#ffffff">

<g id="SVGRepo_bgCarrier" stroke-width="0"/>

<g id="SVGRepo_tracerCarrier" stroke-linecap="round" stroke-linejoin="round"/>

<g id="SVGRepo_iconCarrier"> <g> <path d="M3.33224862,115.629027 L3.33224862,58.6475756 L74.4757566,58.6475756 L74.4757566,55.315327 L3.33224862,55.315327 L3.33224862,3.33224862 L78.9742922,3.33224862 L78.9742922,0 L-3.55271368e-15,0 L-3.55271368e-15,118.961276 L79.640742,118.961276 L79.640742,115.629027 L3.33224862,115.629027 L3.33224862,115.629027 Z M143.786528,33.3224862 L114.296128,72.1431826 L85.472177,33.3224862 L81.1402538,33.3224862 L112.296778,74.642369 L78.14123,118.961276 L82.1399284,118.961276 L114.296128,77.1415554 L146.618939,118.961276 L150.78425,118.961276 L116.462089,74.642369 L147.785226,33.3224862 L143.786528,33.3224862 L143.786528,33.3224862 Z M160.780996,148.285063 L160.780996,94.9690856 L161.114221,94.9690856 " fill="#222222"> </path> </g> </g>

</svg>